<?xml version="1.0" encoding="UTF-8" standalone="no"?>
<!-- Created with Inkscape (http://www.inkscape.org/) -->

<svg
   width="643"
   height="107"
   viewBox="0 0 170.12707 28.310416"
   version="1.1"
   id="svg24"
   xmlns="http://www.w3.org/2000/svg"
   xmlns:svg="http://www.w3.org/2000/svg">
  <defs
     id="defs21" />
  <g
     id="layer1">
    <g
       id="g17341"
       transform="matrix(1.3292596,0,0,1.3325185,-68.497561,-52.801204)"
       style="fill:#712fc3;fill-opacity:1">
      <g
         id="g19030">
        <g
           id="g17329"
           style="fill:#3695ff;fill-opacity:1">
          <path
             d="m 61.693299,54.994083 q -2.767079,0.281832 -3.996891,0.281832 -2.690216,0 -4.278724,-0.999222 -1.588508,-0.999223 -1.588508,-3.612575 v -2.126552 q 0,-2.536489 1.767856,-3.407606 0.845496,-0.409937 1.921582,-0.409937 0.947981,0 1.87034,0.256211 0.92236,0.256211 1.486024,0.563664 0,-0.947981 -0.768633,-1.281055 -0.768633,-0.358696 -1.972825,-0.358696 l 0.23059,-1.947203 q 2.459626,0 3.612575,0.794254 1.178571,0.768633 1.434782,1.844719 0.281832,1.076086 0.281832,2.767079 z m -2.818321,-6.456517 q -0.46118,-0.333074 -1.306676,-0.614906 -0.819875,-0.307453 -1.511645,-0.307453 -0.614906,0 -0.999223,0.307453 -0.384316,0.307453 -0.384316,0.973602 v 1.40916 q 0,2.33152 2.741457,2.33152 0.794255,0 1.460403,-0.128105 z"
             id="path17278"
             style="font-weight:bold;font-size:25.6211px;line-height:1.25;font-family:'Advent Pro';-inkscape-font-specification:'Advent Pro Bold';fill:#3695ff;fill-opacity:1;stroke-width:0.640529" />
          <path
             d="m 65.126445,42.157913 h 2.664594 l 0.153727,0.179347 q 0.281832,-0.128105 0.845496,-0.256211 0.589286,-0.128105 1.127329,-0.128105 2.382762,0 3.612575,1.383539 1.255434,1.38354 1.255434,3.586954 v 3.561333 q 0,2.33152 -1.306677,3.586954 -1.306676,1.229813 -3.458848,1.229813 -0.69177,0 -1.050465,-0.07686 -0.358695,-0.05124 -0.614906,-0.153726 -0.256211,-0.07686 -0.409938,-0.128106 v 4.868009 l -2.818321,0.563664 z m 6.840834,4.66304 q 0,-1.024844 -0.46118,-1.562887 -0.435559,-0.538043 -1.486024,-0.538043 -1.050465,0 -1.562887,0.538043 -0.512422,0.512422 -0.512422,1.434781 v 3.48447 q 0,1.024844 0.435559,1.665371 0.461179,0.640528 1.63975,0.640528 1.178571,0 1.562887,-0.614907 0.384317,-0.614906 0.384317,-2.049688 z"
             id="path17280"
             style="font-weight:bold;font-size:25.6211px;line-height:1.25;font-family:'Advent Pro';-inkscape-font-specification:'Advent Pro Bold';fill:#3695ff;fill-opacity:1;stroke-width:0.640529" />
          <path
             d="m 77.783255,42.157913 h 2.664594 l 0.153727,0.179347 q 0.281832,-0.128105 0.845496,-0.256211 0.589285,-0.128105 1.127328,-0.128105 2.382763,0 3.612575,1.383539 1.255434,1.38354 1.255434,3.586954 v 3.561333 q 0,2.33152 -1.306676,3.586954 -1.306676,1.229813 -3.458848,1.229813 -0.69177,0 -1.050465,-0.07686 -0.358696,-0.05124 -0.614907,-0.153726 -0.256211,-0.07686 -0.409937,-0.128106 v 4.868009 l -2.818321,0.563664 z m 6.840833,4.66304 q 0,-1.024844 -0.461179,-1.562887 -0.435559,-0.538043 -1.486024,-0.538043 -1.050465,0 -1.562887,0.538043 -0.512422,0.512422 -0.512422,1.434781 v 3.48447 q 0,1.024844 0.435559,1.665371 0.461179,0.640528 1.63975,0.640528 1.17857,0 1.562887,-0.614907 0.384316,-0.614906 0.384316,-2.049688 z"
             id="path17282"
             style="font-weight:bold;font-size:25.6211px;line-height:1.25;font-family:'Advent Pro';-inkscape-font-specification:'Advent Pro Bold';fill:#3695ff;fill-opacity:1;stroke-width:0.640529" />
          <path
             d="m 103.60931,47.205269 q 0,-1.383539 -0.38432,-1.998446 -0.35869,-0.614906 -1.17857,-0.614906 -0.58928,0 -1.5885,0.358695 l -0.43556,0.179348 q 0.0512,0.153727 0.0769,0.358696 0.0256,0.204968 0.0256,0.384316 v 9.121111 h -2.81832 v -7.711951 q 0,-1.281055 -0.589285,-1.972824 -0.589285,-0.69177 -1.588508,-0.69177 -0.896739,0 -1.87034,0.563664 v 9.812881 h -2.818321 v -12.83617 h 2.485246 l 0.333075,0.179347 q 0.845496,-0.384316 1.921582,-0.384316 0.871117,0 1.690993,0.307453 0.819875,0.281832 1.434781,0.92236 0.358696,-0.204969 1.076086,-0.563665 1.511641,-0.691769 2.920801,-0.691769 1.8191,0 2.97205,1.127328 1.15295,1.101707 1.15295,3.074532 v 8.8649 h -2.81832 z"
             id="path17284"
             style="font-weight:bold;font-size:25.6211px;line-height:1.25;font-family:'Advent Pro';-inkscape-font-specification:'Advent Pro Bold';fill:#3695ff;fill-opacity:1;stroke-width:0.640529" />
          <path
             d="m 118.98195,50.279801 q 0,2.152172 -1.17857,3.561333 -1.17857,1.40916 -3.56133,1.40916 -2.38277,0 -3.61258,-1.40916 -1.20419,-1.434782 -1.20419,-3.561333 v -3.381985 q 0,-2.434004 1.22981,-3.715059 1.25544,-1.306677 3.58696,-1.306677 2.22903,0 3.48447,1.357919 1.25543,1.332297 1.25543,3.663817 z m -2.7927,-3.381985 q 0,-1.357918 -0.56366,-1.767856 -0.56367,-0.409937 -1.38354,-0.409937 -1.99845,0 -1.99845,2.177793 v 3.638196 q 0,1.024844 0.56366,1.486024 0.56367,0.46118 1.43479,0.46118 0.84549,0 1.38354,-0.486801 0.56366,-0.486801 0.56366,-1.460403 z"
             id="path17286"
             style="font-weight:bold;font-size:25.6211px;line-height:1.25;font-family:'Advent Pro';-inkscape-font-specification:'Advent Pro Bold';fill:#3695ff;fill-opacity:1;stroke-width:0.640529" />
          <path
             d="m 128.25678,46.923437 q 0,-1.024844 -0.58929,-1.63975 -0.56366,-0.640528 -1.53726,-0.640528 -0.79426,0 -1.71662,0.46118 v 9.889744 h -2.7927 v -12.83617 h 2.48525 l 0.33307,0.153726 q 1.07609,-0.358695 2.22904,-0.358695 1.28105,0 2.22904,0.46118 1.02484,0.461179 1.5885,1.383539 0.58929,0.92236 0.58929,2.33152 v 8.8649 h -2.81832 z"
             id="path17288"
             style="font-weight:bold;font-size:25.6211px;line-height:1.25;font-family:'Advent Pro';-inkscape-font-specification:'Advent Pro Bold';fill:#3695ff;fill-opacity:1;stroke-width:0.640529" />
          <path
             d="m 136.53234,51.17654 q 0,0.71739 0.38432,1.127328 0.40994,0.384316 1.17857,0.384316 1.17857,0 3.1514,-1.024844 l 1.02484,2.434005 q -0.92236,0.589285 -2.10093,0.896738 -1.17857,0.307454 -2.35714,0.307454 -1.89596,0 -3.02329,-0.92236 -1.10171,-0.947981 -1.10171,-2.818321 v -5.252325 q 0,-2.075309 1.28106,-3.228259 1.30667,-1.152949 3.43322,-1.152949 2.12656,0 3.30513,1.152949 1.20419,1.127329 1.20419,3.151395 v 3.894408 l -6.37966,0.333074 z m 3.53572,-4.89363 q 0,-0.768633 -0.4868,-1.178571 -0.48681,-0.409938 -1.2042,-0.409938 -0.9736,0 -1.40916,0.512422 -0.43556,0.512422 -0.43556,1.127329 v 1.537266 l 3.53572,-0.23059 z"
             id="path17290"
             style="font-weight:bold;font-size:25.6211px;line-height:1.25;font-family:'Advent Pro';-inkscape-font-specification:'Advent Pro Bold';fill:#3695ff;fill-opacity:1;stroke-width:0.640529" />
          <path
             d="m 149.00974,58.145479 q 0.66615,0 1.17857,-0.409938 0.53805,-0.409938 0.53805,-1.306676 v -1.486024 q -0.0769,0.02562 -0.58929,0.179348 -0.51242,0.179348 -1.51164,0.179348 -2.25466,0 -3.48447,-1.204192 -1.20419,-1.229813 -1.20419,-3.612575 v -8.326857 h 2.81832 v 7.558224 q 0,1.614129 0.40993,2.203414 0.43556,0.563665 1.46041,0.563665 0.74301,0 1.17857,-0.204969 0.46118,-0.23059 0.69177,-0.819875 0.23059,-0.614907 0.23059,-1.742235 v -4.022513 q 0,-0.871117 0.40993,-1.716613 0.43556,-0.845497 1.17857,-1.409161 0.76864,-0.563664 1.71662,-0.640527 l 1.05046,2.305899 q -0.74301,0.179347 -1.15295,0.71739 -0.38431,0.512422 -0.38431,1.15295 V 56.55697 q 0,1.665372 -0.79426,2.613353 -0.76863,0.973601 -2.63897,1.204191 z"
             id="path17292"
             style="font-weight:bold;font-size:25.6211px;line-height:1.25;font-family:'Advent Pro';-inkscape-font-specification:'Advent Pro Bold';fill:#3695ff;fill-opacity:1;stroke-width:0.640529" />
        </g>
        <path
           fill="currentColor"
           d="m 171.81847,42.370874 -9.95675,7.259246 c -0.23089,0.168342 -0.55426,0.117672 -0.7226,-0.113224 -0.16834,-0.230895 -0.11768,-0.554257 0.11322,-0.722598 l 10.02988,-7.312565 c 0.2309,-0.168342 0.28157,-0.491708 0.11323,-0.722604 -0.50484,-0.692427 -1.47539,-0.844495 -2.16781,-0.339665 l -9.61197,7.007875 c -0.92332,0.673175 -1.12606,1.967084 -0.45288,2.890408 l 6.09379,8.358233 c 0.67318,0.923325 1.96709,1.126062 2.89042,0.452887 l 10.37465,-7.563934 c 0.73188,-0.533589 0.91687,-1.529743 0.4128,-2.221124 l -4.87504,-6.686589 c -0.50407,-0.691383 -1.50907,-0.819934 -2.24094,-0.286346 z m 2.78037,6.293603 c -0.46153,0.336493 -1.10871,0.235087 -1.4452,-0.226445 -0.33649,-0.461531 -0.23509,-1.108709 0.22644,-1.445202 0.46153,-0.336492 1.10871,-0.235086 1.4452,0.226445 0.33649,0.461531 0.23509,1.108709 -0.22644,1.445202 z"
           id="path3788"
           style="fill:#3695ff;fill-opacity:1;stroke-width:0.0323244" />
      </g>
    </g>
  </g>
</svg>
