<svg width="467" height="127" viewBox="0 0 467 127" fill="none" xmlns="http://www.w3.org/2000/svg">
<path d="M41.2536 87L37.1852 73.4929H18.2264L14.158 87H1.62736L20.342 30.2052H35.6392L54.1097 87H41.2536ZM27.8278 41.4339H27.421L21.1557 62.9964H34.1745L27.8278 41.4339ZM61.3165 44.2818H73.3589V51.4422H73.7658C74.3625 49.0554 75.7186 47.1026 77.8342 45.5837C80.004 44.0648 82.4722 43.3054 85.2387 43.3054C90.6632 43.3054 94.7587 45.204 97.5252 49.0012C100.292 52.7983 101.675 58.3314 101.675 65.6002C101.675 72.8691 100.292 78.4292 97.5252 82.2807C94.7587 86.0778 90.6632 87.9764 85.2387 87.9764C83.8283 87.9764 82.4993 87.7594 81.2516 87.3255C80.004 86.9458 78.8648 86.4033 77.8342 85.6981C76.8578 84.9387 76.017 84.0708 75.3118 83.0943C74.6066 82.0637 74.0913 80.9788 73.7658 79.8396H73.3589V103.274H61.3165V44.2818ZM81.2516 78.2123C83.5299 78.2123 85.4014 77.4257 86.866 75.8526C88.3849 74.2252 89.1443 72.0554 89.1443 69.3432V61.9387C89.1443 59.2264 88.3849 57.0837 86.866 55.5106C85.4014 53.8832 83.5299 53.0696 81.2516 53.0696C78.9733 53.0696 77.0747 53.6391 75.5559 54.7783C74.0913 55.8632 73.3589 57.3821 73.3589 59.3349V71.9469C73.3589 73.8998 74.0913 75.4457 75.5559 76.5849C77.0747 77.6698 78.9733 78.2123 81.2516 78.2123ZM110.821 44.2818H122.863V51.4422H123.27C123.867 49.0554 125.223 47.1026 127.338 45.5837C129.508 44.0648 131.976 43.3054 134.743 43.3054C140.167 43.3054 144.263 45.204 147.029 49.0012C149.796 52.7983 151.179 58.3314 151.179 65.6002C151.179 72.8691 149.796 78.4292 147.029 82.2807C144.263 86.0778 140.167 87.9764 134.743 87.9764C133.332 87.9764 132.003 87.7594 130.756 87.3255C129.508 86.9458 128.369 86.4033 127.338 85.6981C126.362 84.9387 125.521 84.0708 124.816 83.0943C124.111 82.0637 123.595 80.9788 123.27 79.8396H122.863V103.274H110.821V44.2818ZM130.756 78.2123C133.034 78.2123 134.906 77.4257 136.37 75.8526C137.889 74.2252 138.648 72.0554 138.648 69.3432V61.9387C138.648 59.2264 137.889 57.0837 136.37 55.5106C134.906 53.8832 133.034 53.0696 130.756 53.0696C128.477 53.0696 126.579 53.6391 125.06 54.7783C123.595 55.8632 122.863 57.3821 122.863 59.3349V71.9469C122.863 73.8998 123.595 75.4457 125.06 76.5849C126.579 77.6698 128.477 78.2123 130.756 78.2123ZM160.325 87V44.2818H172.367V51.5236H172.855C173.615 49.2453 174.917 47.3196 176.761 45.7464C178.605 44.1191 181.128 43.3054 184.328 43.3054C187.258 43.3054 189.753 44.0377 191.814 45.5023C193.876 46.967 195.367 49.1096 196.289 51.9304H196.534C196.913 50.737 197.483 49.625 198.242 48.5943C199.056 47.5094 200.032 46.5872 201.171 45.8278C202.311 45.0684 203.585 44.4717 204.996 44.0377C206.406 43.5495 207.925 43.3054 209.552 43.3054C213.675 43.3054 216.821 44.77 218.991 47.6993C221.215 50.6285 222.327 54.8054 222.327 60.2299V87H210.285V61.2064C210.285 55.7818 208.332 53.0696 204.426 53.0696C202.636 53.0696 201.009 53.5849 199.544 54.6155C198.08 55.6462 197.347 57.2193 197.347 59.3349V87H185.305V61.2064C185.305 55.7818 183.352 53.0696 179.446 53.0696C178.578 53.0696 177.71 53.2052 176.842 53.4764C176.029 53.6934 175.269 54.0731 174.564 54.6155C173.913 55.158 173.371 55.8361 172.937 56.6497C172.557 57.4092 172.367 58.3042 172.367 59.3349V87H160.325ZM250.363 87.9764C247.217 87.9764 244.396 87.4611 241.901 86.4304C239.46 85.3998 237.371 83.908 235.635 81.9552C233.954 80.0024 232.652 77.6427 231.73 74.8762C230.807 72.1097 230.346 69.0177 230.346 65.6002C230.346 62.1828 230.807 59.0908 231.73 56.3243C232.652 53.5578 233.954 51.2252 235.635 49.3266C237.371 47.3738 239.46 45.8821 241.901 44.8514C244.396 43.8207 247.217 43.3054 250.363 43.3054C253.509 43.3054 256.303 43.8207 258.744 44.8514C261.239 45.8821 263.328 47.3738 265.009 49.3266C266.745 51.2252 268.074 53.5578 268.996 56.3243C269.918 59.0908 270.379 62.1828 270.379 65.6002C270.379 69.0177 269.918 72.1097 268.996 74.8762C268.074 77.6427 266.745 80.0024 265.009 81.9552C263.328 83.908 261.239 85.3998 258.744 86.4304C256.303 87.4611 253.509 87.9764 250.363 87.9764ZM250.363 78.4564C252.75 78.4564 254.594 77.7241 255.896 76.2594C257.198 74.7948 257.849 72.7064 257.849 69.9941V61.2877C257.849 58.5755 257.198 56.487 255.896 55.0224C254.594 53.5578 252.75 52.8255 250.363 52.8255C247.976 52.8255 246.132 53.5578 244.83 55.0224C243.528 56.487 242.877 58.5755 242.877 61.2877V69.9941C242.877 72.7064 243.528 74.7948 244.83 76.2594C246.132 77.7241 247.976 78.4564 250.363 78.4564ZM278.96 87V44.2818H291.002V51.5236H291.491C292.25 49.2995 293.579 47.3738 295.478 45.7464C297.376 44.1191 300.007 43.3054 303.37 43.3054C307.764 43.3054 311.073 44.77 313.297 47.6993C315.575 50.6285 316.715 54.8054 316.715 60.2299V87H304.672V61.2064C304.672 58.4398 304.238 56.4056 303.37 55.1038C302.502 53.7476 300.956 53.0696 298.732 53.0696C297.756 53.0696 296.807 53.2052 295.884 53.4764C294.962 53.6934 294.121 54.0731 293.362 54.6155C292.657 55.158 292.087 55.8361 291.653 56.6497C291.219 57.4092 291.002 58.3042 291.002 59.3349V87H278.96ZM345.251 87.9764C341.996 87.9764 339.094 87.4611 336.544 86.4304C333.995 85.3455 331.825 83.8538 330.035 81.9552C328.299 80.0024 326.97 77.6427 326.048 74.8762C325.18 72.1097 324.746 69.0177 324.746 65.6002C324.746 62.237 325.18 59.1993 326.048 56.487C326.916 53.7205 328.19 51.3608 329.872 49.408C331.608 47.4552 333.723 45.9634 336.219 44.9328C338.714 43.8479 341.562 43.3054 344.762 43.3054C348.288 43.3054 351.299 43.9021 353.794 45.0955C356.344 46.2889 358.405 47.8891 359.978 49.8962C361.606 51.9033 362.772 54.2358 363.477 56.8939C364.236 59.4976 364.616 62.237 364.616 65.112V68.6922H337.195V69.3432C337.195 72.1639 337.955 74.4151 339.473 76.0967C340.992 77.7241 343.379 78.5377 346.634 78.5377C349.129 78.5377 351.163 78.0495 352.736 77.0731C354.31 76.0424 355.774 74.8219 357.13 73.4115L363.152 80.8974C361.253 83.1215 358.758 84.8573 355.666 86.105C352.628 87.3526 349.156 87.9764 345.251 87.9764ZM345.007 52.1745C342.565 52.1745 340.64 52.9882 339.229 54.6155C337.873 56.1887 337.195 58.3042 337.195 60.9622V61.6132H352.167V60.8809C352.167 58.2771 351.57 56.1887 350.377 54.6155C349.238 52.9882 347.448 52.1745 345.007 52.1745ZM398.684 44.2818H409.913L393.476 93.5908C392.391 96.8998 390.846 99.3408 388.838 100.914C386.886 102.487 384.065 103.274 380.376 103.274H372.89V93.9163H380.946L382.41 89.1969L367.439 44.2818H379.4L385.665 64.217L388.757 76.5849H389.245L392.419 64.217L398.684 44.2818Z" fill="#00A3FF"/>
<g clip-path="url(#clip0_1_7)">
<path d="M461.097 42.9633C462.694 42.9633 463.984 44.2904 463.984 45.9267C463.984 47.563 462.694 48.89 461.097 48.89H427.904C427.107 48.89 426.461 49.5567 426.461 50.3717C426.461 51.1866 427.107 51.8533 427.904 51.8533H461.097C464.281 51.8533 466.87 54.5111 466.87 57.78V78.5233C466.87 81.7923 464.281 84.45 461.097 84.45H426.461C423.273 84.45 420.688 81.7923 420.688 78.5233V48.89C420.688 45.6164 423.273 42.9633 426.461 42.9633H461.097ZM458.211 71.115C459.808 71.115 461.097 69.7908 461.097 68.1517C461.097 66.5126 459.808 65.1883 458.211 65.1883C456.615 65.1883 455.325 66.5126 455.325 68.1517C455.325 69.7908 456.615 71.115 458.211 71.115Z" fill="#00A3FF"/>
</g>
<defs>
<clipPath id="clip0_1_7">
<rect width="46.1818" height="47.4133" fill="white" transform="translate(420.688 40)"/>
</clipPath>
</defs>
</svg>
