<?xml version="1.0" encoding="UTF-8" standalone="no"?>
<!-- Created with Inkscape (http://www.inkscape.org/) -->

<svg
   version="1.1"
   id="svg41"
   xml:space="preserve"
   width="510"
   height="90"
   viewBox="0 0 510 90"
   sodipodi:docname="logo.svg"
   inkscape:version="1.1.2 (b8e25be833, 2022-02-05)"
   xmlns:inkscape="http://www.inkscape.org/namespaces/inkscape"
   xmlns:sodipodi="http://sodipodi.sourceforge.net/DTD/sodipodi-0.dtd"
   xmlns:xlink="http://www.w3.org/1999/xlink"
   xmlns="http://www.w3.org/2000/svg"
   xmlns:svg="http://www.w3.org/2000/svg"><defs
     id="defs45"><clipPath
       clipPathUnits="userSpaceOnUse"
       id="clipPath57"><path
         d="M 0,500.5 H 500.5 V 0 H 0 Z"
         id="path55" /></clipPath><linearGradient
       x1="0"
       y1="0"
       x2="1"
       y2="0"
       gradientUnits="userSpaceOnUse"
       gradientTransform="matrix(31.845863,-32.885979,-32.885979,-31.845863,43.053986,268.60873)"
       spreadMethod="pad"
       id="linearGradient103"><stop
         style="stop-opacity:1;stop-color:#662d91"
         offset="0"
         id="stop97" /><stop
         style="stop-opacity:1;stop-color:#662d91"
         offset="0.00495049"
         id="stop99" /><stop
         style="stop-opacity:1;stop-color:#ed1c24"
         offset="1"
         id="stop101" /></linearGradient><clipPath
       clipPathUnits="userSpaceOnUse"
       id="clipPath113"><path
         d="M 0,500.5 H 500.5 V 0 H 0 Z"
         id="path111" /></clipPath><linearGradient
       inkscape:collect="always"
       xlink:href="#linearGradient103"
       id="linearGradient22078"
       x1="85.051689"
       y1="329.5647"
       x2="97.384377"
       y2="318.67239"
       gradientUnits="userSpaceOnUse"
       gradientTransform="translate(-10.067575,5.3911347)" /><linearGradient
       inkscape:collect="always"
       xlink:href="#linearGradient103"
       id="linearGradient23098"
       x1="106.41731"
       y1="327.64285"
       x2="94.214569"
       y2="335.64014"
       gradientUnits="userSpaceOnUse"
       gradientTransform="translate(-10.356211,5.0848159)" /></defs><sodipodi:namedview
     id="namedview43"
     pagecolor="#505050"
     bordercolor="#eeeeee"
     borderopacity="1"
     inkscape:pageshadow="0"
     inkscape:pageopacity="0"
     inkscape:pagecheckerboard="0"
     showgrid="false"
     inkscape:zoom="0.85509769"
     inkscape:cx="591.16053"
     inkscape:cy="159.63088"
     inkscape:window-width="2488"
     inkscape:window-height="1016"
     inkscape:window-x="1672"
     inkscape:window-y="27"
     inkscape:window-maximized="1"
     inkscape:current-layer="g47"
     width="510px" /><g
     id="g47"
     inkscape:groupmode="layer"
     inkscape:label="ideia logo"
     transform="matrix(1.3333333,0,0,-1.3333333,0,667.33333)"
     style="display:inline"><g
       id="g51" /><g
       id="g69"
       transform="translate(267.723,125.1234)"><path
         d="M 0,0 V 63.751 Z"
         style="fill:#ffffff;fill-opacity:1;fill-rule:nonzero;stroke:none"
         id="path71" /></g><g
       id="g77"
       transform="translate(387.7893,311.067)"><path
         d="M 0,0 V 61.628 Z"
         style="fill:#ffffff;fill-opacity:1;fill-rule:nonzero;stroke:none"
         id="path79" /></g><g
       id="g25571"
       transform="translate(-83.225872,151.45543)"><path
         d="m 151.6601,335.91978 c -1.189,1.102 -3.015,1.653 -5.479,1.653 h -5.705 v -31.704 h 5.317 c 2.334,0 4.191,0.357 5.575,1.07 1.383,0.712 2.075,2.279 2.075,4.7 v 19.061 c 0,2.377 -0.595,4.117 -1.783,5.22 m -18.315,8.85 h 12.188 c 4.884,0 8.612,-1.34 11.185,-4.02 2.57,-2.681 3.857,-6.246 3.857,-10.698 v -17.765 c 0,-8.645 -4.582,-12.967 -13.745,-12.967 h -13.485 z"
         style="fill:#000000;fill-opacity:1;fill-rule:nonzero;stroke:none"
         id="path129" /><path
         d="m 182.8134,324.34658 c -0.822,0.69 -1.838,1.037 -3.048,1.037 -1.642,0 -2.831,-0.433 -3.565,-1.297 -0.736,-0.864 -1.103,-1.815 -1.103,-2.852 v -3.89 l 8.947,0.583 v 3.437 c 0,1.296 -0.411,2.29 -1.231,2.982 m -7.716,-15.366 c 0,-1.21 0.334,-2.151 1.005,-2.821 0.67,-0.669 1.653,-1.004 2.95,-1.004 1.988,0 4.646,0.864 7.975,2.593 l 2.594,-6.159 c -1.557,-0.995 -3.329,-1.751 -5.317,-2.269 -1.989,-0.519 -3.977,-0.779 -5.965,-0.779 -3.199,0 -5.738,0.788 -7.618,2.368 -1.881,1.577 -2.82,3.943 -2.82,7.098 v 13.292 c 0,3.501 1.091,6.224 3.273,8.169 2.183,1.945 5.068,2.917 8.657,2.917 3.586,0 6.385,-0.962 8.395,-2.885 2.01,-1.924 3.016,-4.592 3.016,-8.007 v -9.855 l -16.145,-0.843 z"
         style="fill:#000000;fill-opacity:1;fill-rule:nonzero;stroke:none"
         id="path133" /><path
         d="m 192.6025,331.80258 h 7.78 l 6.03,-19.84 5.9,19.84 h 7.715 l -10.179,-32.482 h -6.873 z"
         style="fill:#000000;fill-opacity:1;fill-rule:nonzero;stroke:none"
         id="path137" /><path
         d="m 240.1249,323.92468 c -1.08,0.844 -2.398,1.265 -3.954,1.265 -0.865,0 -1.687,-0.109 -2.464,-0.325 -0.778,-0.216 -1.341,-0.475 -1.686,-0.778 v -18.542 c 0.735,-0.217 1.621,-0.324 2.659,-0.324 1.815,0 3.446,0.334 4.894,1.005 1.447,0.669 2.172,1.718 2.172,3.144 v 10.373 c 0,1.946 -0.541,3.339 -1.621,4.182 m 7.327,-20.001 c -0.908,-1.514 -2.14,-2.658 -3.696,-3.436 -1.384,-0.692 -2.777,-1.189 -4.182,-1.492 -1.405,-0.301 -2.907,-0.454 -4.506,-0.454 -1.599,0 -3.803,0.153 -6.613,0.454 l -3.565,0.325 v 45.384 h 7.131 v -12.967 c 1.902,0.432 3.63,0.648 5.187,0.648 2.204,0 4.235,-0.432 6.095,-1.296 3.673,-1.686 5.51,-4.798 5.51,-9.337 v -12.254 c 0,-2.204 -0.454,-4.062 -1.361,-5.575"
         style="fill:#000000;fill-opacity:1;fill-rule:nonzero;stroke:none"
         id="path141" /><path
         d="m 268.9452,292.38268 c 0.886,0.692 1.329,1.794 1.329,3.307 v 3.76 c -0.13,-0.044 -0.627,-0.205 -1.491,-0.486 -0.865,-0.281 -2.14,-0.422 -3.825,-0.422 -3.804,0 -6.733,1.027 -8.785,3.08 -2.054,2.053 -3.081,5.09 -3.081,9.11 v 21.071 h 7.133 v -19.126 c 0,-2.724 0.357,-4.571 1.07,-5.544 0.713,-0.973 1.933,-1.459 3.663,-1.459 1.253,0 2.258,0.184 3.014,0.552 0.756,0.366 1.329,1.058 1.719,2.074 0.389,1.016 0.583,2.474 0.583,4.377 v 10.179 c 0,1.468 0.357,2.918 1.07,4.343 0.713,1.427 1.707,2.616 2.983,3.567 1.274,0.95 2.712,1.491 4.311,1.62 l 2.659,-5.835 c -1.255,-0.303 -2.216,-0.897 -2.886,-1.782 -0.671,-0.887 -1.005,-1.87 -1.005,-2.95 v -26.454 c 0,-2.808 -0.659,-5.024 -1.978,-6.645 -1.318,-1.621 -3.555,-2.626 -6.71,-3.015 l -2.788,5.641 c 1.123,0 2.128,0.347 3.015,1.037"
         style="fill:#000000;fill-opacity:1;fill-rule:nonzero;stroke:none"
         id="path145" /><path
         d="m 321.8827,319.03008 c 0,2.334 -0.314,4.02 -0.94,5.057 -0.627,1.038 -1.632,1.556 -3.015,1.556 -0.995,0 -2.334,-0.302 -4.021,-0.908 l -1.101,-0.453 c 0.086,-0.26 0.15,-0.563 0.194,-0.908 0.043,-0.347 0.065,-0.671 0.065,-0.973 v -23.081 h -7.132 v 19.516 c 0,2.16 -0.497,3.825 -1.491,4.992 -0.995,1.167 -2.334,1.75 -4.02,1.75 -1.514,0 -3.091,-0.476 -4.732,-1.426 v -24.832 h -7.132 v 32.482 h 6.288 l 0.844,-0.454 c 1.425,0.649 3.047,0.973 4.862,0.973 1.469,0 2.895,-0.249 4.279,-0.745 1.383,-0.498 2.593,-1.287 3.631,-2.367 0.605,0.345 1.512,0.821 2.723,1.426 2.55,1.167 5.013,1.75 7.391,1.75 3.069,0 5.576,-0.939 7.521,-2.82 1.945,-1.88 2.918,-4.484 2.918,-7.812 v -22.433 h -7.132 z"
         style="fill:#000000;fill-opacity:1;fill-rule:nonzero;stroke:none"
         id="path149" /><path
         d="m 348.497,317.24688 c -1.405,0.496 -2.69,0.746 -3.857,0.746 -1.038,0 -1.88,-0.26 -2.529,-0.778 -0.648,-0.519 -0.972,-1.34 -0.972,-2.464 v -3.566 c 0,-3.933 2.311,-5.9 6.937,-5.9 1.339,0 2.571,0.108 3.695,0.324 v 10.05 c -0.778,0.561 -1.87,1.091 -3.274,1.588 m 0.292,-18.64 c -4.538,0 -8.147,0.843 -10.827,2.529 -2.681,1.685 -4.021,4.733 -4.021,9.141 v 5.382 c 0,4.278 1.492,7.152 4.474,8.623 1.427,0.691 3.048,1.037 4.863,1.037 1.599,0 3.177,-0.217 4.733,-0.648 1.556,-0.433 2.809,-0.908 3.76,-1.427 0,1.599 -0.648,2.691 -1.945,3.274 -1.297,0.584 -2.961,0.875 -4.992,0.875 l 0.584,4.928 c 4.149,0 7.207,-0.659 9.174,-1.977 1.967,-1.319 3.176,-2.885 3.631,-4.701 0.454,-1.815 0.68,-4.149 0.68,-7.001 v -19.322 c -4.668,-0.475 -8.039,-0.713 -10.114,-0.713"
         style="fill:#000000;fill-opacity:1;fill-rule:nonzero;stroke:none"
         id="path153" /><path
         d="m 365.1923,331.80258 h 6.613 l 0.519,-0.26 c 1.771,0.606 3.436,0.908 4.992,0.908 1.08,0 2.658,-0.216 4.733,-0.648 l 1.296,-0.26 -1.685,-6.936 c -1.21,0.604 -2.399,0.907 -3.566,0.907 -1.599,0 -2.962,-0.486 -4.085,-1.459 -1.124,-0.973 -1.685,-2.259 -1.685,-3.857 v -20.877 h -7.132 z"
         style="fill:#000000;fill-opacity:1;fill-rule:nonzero;stroke:none"
         id="path157" /><path
         d="m 397.8036,298.67168 c -2.334,0 -4.279,0.26 -5.835,0.778 -2.551,0.865 -4.398,2.194 -5.544,3.988 -1.145,1.793 -1.718,4.311 -1.718,7.552 v 8.299 c 0,4.279 1.124,7.531 3.371,9.758 2.247,2.226 5.144,3.339 8.689,3.339 2.808,0 5.705,-0.692 8.687,-2.074 l -1.944,-6.16 c -2.075,0.821 -3.935,1.232 -5.576,1.232 -1.945,0 -3.447,-0.541 -4.506,-1.621 -1.06,-1.08 -1.589,-2.443 -1.589,-4.084 v -9.402 c 0,-1.642 0.584,-2.81 1.751,-3.501 1.167,-0.692 2.658,-1.037 4.474,-1.037 1.037,0 2.074,0.108 3.111,0.325 1.038,0.215 1.858,0.431 2.464,0.648 l 1.945,-7.003 c -2.68,-0.69 -5.273,-1.037 -7.78,-1.037"
         style="fill:#000000;fill-opacity:1;fill-rule:nonzero;stroke:none"
         id="path161" /><path
         d="m 427.9521,324.28208 c -0.951,0.69 -2.118,1.037 -3.501,1.037 -3.371,0 -5.057,-1.838 -5.057,-5.511 v -9.207 c 0,-1.729 0.475,-2.982 1.426,-3.76 0.95,-0.778 2.161,-1.167 3.631,-1.167 1.427,0 2.604,0.41 3.533,1.232 0.93,0.82 1.395,2.052 1.395,3.695 v 9.207 c 0,2.29 -0.477,3.782 -1.427,4.474 m 5.511,-22.044 c -1.989,-2.378 -4.992,-3.566 -9.012,-3.566 -4.02,0 -7.057,1.199 -9.109,3.598 -2.054,2.399 -3.079,5.392 -3.079,8.98 v 8.558 c 0,4.106 1.046,7.25 3.143,9.434 2.097,2.182 5.111,3.273 9.045,3.273 3.761,0 6.699,-1.134 8.817,-3.403 2.118,-2.269 3.177,-5.371 3.177,-9.304 v -8.558 c 0,-3.631 -0.994,-6.636 -2.982,-9.012"
         style="fill:#000000;fill-opacity:1;fill-rule:nonzero;stroke:none"
         id="path165" /><path
         d="m 449.6386,306.06338 c 0.8,-0.692 2.021,-1.038 3.663,-1.038 1.427,0 2.529,0.357 3.307,1.07 0.778,0.713 1.167,1.545 1.167,2.496 0,1.339 -0.486,2.334 -1.458,2.983 -0.973,0.648 -2.54,1.361 -4.701,2.139 -1.859,0.605 -3.394,1.209 -4.603,1.816 -1.211,0.604 -2.292,1.513 -3.242,2.722 -0.951,1.21 -1.514,2.789 -1.686,4.734 -0.13,1.469 0.162,2.95 0.875,4.441 0.713,1.491 1.923,2.723 3.631,3.696 1.707,0.972 3.901,1.459 6.581,1.459 1.383,0 2.604,-0.142 3.663,-0.422 1.059,-0.282 1.89,-0.574 2.496,-0.875 0.605,-0.303 0.973,-0.497 1.102,-0.584 l -2.074,-6.614 c -0.087,0.087 -0.315,0.249 -0.681,0.487 -0.368,0.237 -0.94,0.464 -1.719,0.68 -0.777,0.216 -1.708,0.325 -2.787,0.325 -2.334,0 -3.501,-0.648 -3.501,-1.945 0,-0.259 0.042,-0.518 0.129,-0.778 0.13,-0.605 0.584,-1.113 1.362,-1.523 0.778,-0.412 1.922,-0.898 3.436,-1.459 2.117,-0.779 3.9,-1.546 5.35,-2.302 1.447,-0.757 2.7,-1.88 3.759,-3.371 1.059,-1.491 1.589,-3.405 1.589,-5.739 0,-1.772 -0.432,-3.425 -1.297,-4.96 -0.865,-1.534 -2.194,-2.777 -3.987,-3.727 -1.794,-0.95 -4.031,-1.427 -6.711,-1.427 -2.463,0 -4.593,0.422 -6.386,1.265 -1.794,0.843 -3.155,1.955 -4.085,3.339 -0.929,1.383 -1.437,2.918 -1.523,4.603 l 7.132,0.713 c 0,-0.778 0.399,-1.514 1.199,-2.204"
         style="fill:#000000;fill-opacity:1;fill-rule:nonzero;stroke:none"
         id="path169" /><g
         id="g25519"
         transform="matrix(1.620298,0,0,1.620298,-32.011815,-216.19104)"><path
           d="m 91.049441,335.14504 c -2.437006,2.396 -4.722006,4.603 -6.958006,6.856 -1.399,1.411 -1.359,1.933 0.044,3.322 1.289,1.275 1.835,1.293 3.2,-0.055 2.899006,-2.86 5.756006,-5.764 8.658006,-8.62 1.047,-1.03 1.086,-1.957 0.027,-3.003 -2.938,-2.9 -5.867,-5.812 -8.756006,-8.761 -1.096,-1.118 -2.031,-1.141 -3.111,0.003 -1.337,1.418 -1.44,1.973 -0.209,3.215 2.273,2.295 4.585,4.551 7.105006,7.043"
           style="fill:url(#linearGradient23098);fill-opacity:1;fill-rule:nonzero;stroke:none"
           id="path735" /><path
           d="m 77.133676,328.62273 c 2.437,2.396 4.722,4.603 6.958,6.856 1.399,1.411 1.359,1.933 -0.044,3.322 -1.289,1.275 -1.835,1.293 -3.2,-0.055 -2.899,-2.86 -5.756,-5.764 -8.658,-8.62 -1.047,-1.03 -1.086,-1.957 -0.027,-3.003 2.938,-2.9 5.867,-5.812 8.756,-8.761 1.096,-1.118 2.031,-1.141 3.111,0.003 1.337,1.418 1.44,1.973 0.209,3.215 -2.273,2.295 -4.585,4.551 -7.105,7.043"
           style="fill:url(#linearGradient22078);fill-opacity:1;fill-rule:nonzero;stroke:none"
           id="path735-3" /></g></g></g></svg>
