<?xml version="1.0" standalone="no"?>
<!DOCTYPE svg PUBLIC "-//W3C//DTD SVG 20010904//EN"
 "http://www.w3.org/TR/2001/REC-SVG-20010904/DTD/svg10.dtd">
<svg version="1.0" xmlns="http://www.w3.org/2000/svg"
 width="182.000000pt" height="182.000000pt" viewBox="0 0 182.000000 182.000000"
 preserveAspectRatio="xMidYMid meet">
<metadata>
Created by potrace 1.14, written by Peter Selinger 2001-2017
</metadata>
<g transform="translate(0.000000,182.000000) scale(0.100000,-0.100000)"
fill="#000000" stroke="none">
<path d="M1024 1769 c-6 -11 -4 -15 58 -96 173 -229 261 -488 262 -768 0 -61
-12 -204 -19 -214 -2 -4 -6 -22 -9 -42 -16 -103 -94 -293 -164 -403 -35 -54
-114 -159 -125 -167 -6 -4 -7 -14 -4 -23 6 -14 31 -16 196 -16 l189 0 33 28
c19 15 47 42 64 61 16 19 38 43 49 55 34 38 112 160 148 231 69 136 108 310
109 485 0 136 -7 194 -37 309 -48 185 -134 339 -272 485 -80 86 -72 84 -285
84 -103 0 -190 -4 -193 -9z"/>
<path d="M152 1672 c-56 -18 -118 -81 -132 -134 -44 -163 50 -292 216 -297
147 -5 247 97 238 241 -10 155 -161 244 -322 190z"/>
<path d="M145 746 c-85 -37 -135 -113 -135 -206 0 -161 153 -267 309 -215 63
21 95 45 126 99 64 110 23 255 -88 311 -58 29 -160 34 -212 11z"/>
</g>
</svg>
